<svg width="168" height="168" viewBox="0 0 168 168" fill="none" xmlns="http://www.w3.org/2000/svg">
<path d="M0 0H168V168H0V0Z" fill="#D9D9D9"/>
<path d="M48.7322 75.4567C48.647 74.5973 48.2813 73.9297 47.6349 73.4538C46.9886 72.978 46.1115 72.7401 45.0036 72.7401C44.2507 72.7401 43.6151 72.8466 43.0966 73.0597C42.5781 73.2656 42.1804 73.5533 41.9034 73.9226C41.6335 74.2919 41.4986 74.7109 41.4986 75.1797C41.4844 75.5703 41.5661 75.9112 41.7436 76.2024C41.9283 76.4936 42.1804 76.7457 42.5 76.9588C42.8196 77.1648 43.1889 77.3459 43.608 77.5021C44.027 77.6513 44.4744 77.7791 44.9503 77.8857L46.9105 78.3544C47.8622 78.5675 48.7358 78.8516 49.5312 79.2067C50.3267 79.5618 51.0156 79.9986 51.598 80.517C52.1804 81.0355 52.6314 81.6463 52.951 82.3494C53.2777 83.0526 53.4446 83.8587 53.4517 84.7678C53.4446 86.103 53.1037 87.2607 52.429 88.2408C51.7614 89.2138 50.7955 89.9702 49.5312 90.5099C48.2741 91.0426 46.7578 91.3089 44.9822 91.3089C43.2209 91.3089 41.6868 91.0391 40.38 90.4993C39.0803 89.9595 38.0646 89.1605 37.3331 88.1023C36.6087 87.0369 36.2287 85.7195 36.1932 84.1499H40.657C40.7067 84.8814 40.9162 85.4922 41.2855 85.9822C41.6619 86.4652 42.1626 86.831 42.7876 87.0795C43.4197 87.321 44.1335 87.4418 44.929 87.4418C45.7102 87.4418 46.3885 87.3281 46.9638 87.1009C47.5462 86.8736 47.9972 86.5575 48.3168 86.1527C48.6364 85.7479 48.7962 85.2827 48.7962 84.7571C48.7962 84.267 48.6506 83.8551 48.3594 83.5213C48.0753 83.1875 47.6563 82.9034 47.1023 82.669C46.5554 82.4347 45.8842 82.2216 45.0888 82.0298L42.7131 81.4332C40.8736 80.9858 39.4212 80.2862 38.3558 79.3345C37.2905 78.3828 36.7614 77.1009 36.7685 75.4886C36.7614 74.1676 37.1129 73.0135 37.8232 72.0263C38.5405 71.0391 39.5241 70.2685 40.7741 69.7145C42.0241 69.1605 43.4446 68.8835 45.0355 68.8835C46.6548 68.8835 48.0682 69.1605 49.2756 69.7145C50.4901 70.2685 51.4347 71.0391 52.1094 72.0263C52.7841 73.0135 53.1321 74.157 53.1534 75.4567H48.7322Z" fill="#1A1A1A"/>
<path d="M84.8047 84.0327V74.6364H89.343V91H84.9858V88.0277H84.8153C84.446 88.9865 83.8317 89.7571 82.9723 90.3395C82.12 90.9219 81.0795 91.2131 79.8509 91.2131C78.7571 91.2131 77.7947 90.9645 76.9638 90.4673C76.1328 89.9702 75.483 89.2635 75.0142 88.3473C74.5526 87.4311 74.3182 86.3338 74.3111 85.0554V74.6364H78.8494V84.2457C78.8565 85.2116 79.1158 85.9751 79.6271 86.5362C80.1385 87.0973 80.8239 87.3778 81.6832 87.3778C82.2301 87.3778 82.7415 87.2536 83.2173 87.005C83.6932 86.7493 84.0767 86.3729 84.3679 85.8757C84.6662 85.3786 84.8118 84.7642 84.8047 84.0327ZM92.9732 91V74.6364H97.5115V91H92.9732ZM95.253 72.527C94.5783 72.527 93.9995 72.3033 93.5165 71.8558C93.0407 71.4013 92.8027 70.858 92.8027 70.2259C92.8027 69.6009 93.0407 69.0646 93.5165 68.6172C93.9995 68.1626 94.5783 67.9354 95.253 67.9354C95.9277 67.9354 96.503 68.1626 96.9789 68.6172C97.4618 69.0646 97.7033 69.6009 97.7033 70.2259C97.7033 70.858 97.4618 71.4013 96.9789 71.8558C96.503 72.3033 95.9277 72.527 95.253 72.527ZM105.685 81.5398V91H101.147V74.6364H105.472V77.5234H105.664C106.026 76.5717 106.634 75.8189 107.486 75.2649C108.338 74.7038 109.371 74.4233 110.586 74.4233C111.722 74.4233 112.713 74.6719 113.558 75.169C114.403 75.6662 115.06 76.3764 115.529 77.2997C115.998 78.2159 116.232 79.3097 116.232 80.581V91H111.694V81.3906C111.701 80.3892 111.445 79.608 110.927 79.0469C110.408 78.4787 109.695 78.1946 108.786 78.1946C108.175 78.1946 107.635 78.326 107.166 78.5888C106.705 78.8516 106.342 79.2351 106.08 79.7393C105.824 80.2365 105.692 80.8366 105.685 81.5398ZM128.513 74.6364V78.0455H118.659V74.6364H128.513ZM120.896 70.7159H125.434V85.9716C125.434 86.3906 125.498 86.7173 125.626 86.9517C125.754 87.179 125.931 87.3388 126.159 87.4311C126.393 87.5234 126.663 87.5696 126.968 87.5696C127.181 87.5696 127.394 87.5518 127.607 87.5163C127.82 87.4737 127.984 87.4418 128.097 87.4205L128.811 90.7976C128.584 90.8686 128.264 90.9503 127.852 91.0426C127.441 91.142 126.94 91.2024 126.35 91.2237C125.257 91.2663 124.298 91.1207 123.474 90.7869C122.657 90.4531 122.021 89.9347 121.567 89.2315C121.112 88.5284 120.889 87.6406 120.896 86.5682V70.7159Z" fill="#1A1A1A"/>
<g clip-path="url(#clip0_18_5)">
<path d="M63.9821 106.829L63.9513 103.496M63.9513 103.496L58.9507 103.542L58.8967 97.7081L63.8973 97.6618M63.9513 103.496L63.8973 97.6618M63.8339 90.8111C62.979 90.8247 62.1299 90.6691 61.3354 90.3532C60.5409 90.0374 59.8167 89.5675 59.2046 88.9706C58.5924 88.3737 58.1044 87.6616 57.7686 86.8753C57.4328 86.089 57.2558 85.2441 57.2479 84.3891C57.24 83.5342 57.4013 82.6861 57.7225 81.8937C58.0437 81.1014 58.5184 80.3804 59.1194 79.7722C59.7204 79.1641 60.4358 78.6809 61.2243 78.3503C62.0128 78.0198 62.8589 77.8485 63.7139 77.8464C65.4136 77.8602 67.04 78.541 68.2426 79.7423C69.4453 80.9436 70.128 82.5692 70.1437 84.2689C70.1594 85.9687 69.5069 87.6066 68.3267 88.8299C67.1465 90.0533 65.5331 90.7641 63.8339 90.8094L63.8339 90.8111ZM63.8339 90.8111L63.8973 97.6618" stroke="#1A1A1A" stroke-width="4" stroke-linecap="round" stroke-linejoin="round"/>
</g>
<defs>
<clipPath id="clip0_18_5">
<rect width="28.2885" height="28.2885" fill="white" transform="translate(83.0043 90.817) rotate(134.47)"/>
</clipPath>
</defs>
</svg>
